<svg viewBox="0 0 48 48" fill="none" xmlns="http://www.w3.org/2000/svg" aria-hidden="true">
      <path d="M12 16C12 16 14 20 18 20C22 20 24 16 24 16" stroke="#50000B" stroke-width="2" stroke-linecap="round"></path>
      <path d="M24 16C24 16 26 20 30 20C34 20 36 16 36 16" stroke="#50000B" stroke-width="2" stroke-linecap="round"></path>
      <path d="M12 24C12 24 14 28 18 28C22 28 24 24 24 24" stroke="#50000B" stroke-width="2" stroke-linecap="round"></path>
      <path d="M24 24C24 24 26 28 30 28C34 28 36 24 36 24" stroke="#50000B" stroke-width="2" stroke-linecap="round"></path>
      <path d="M12 32C12 32 14 36 18 36C22 36 24 32 24 32" stroke="#50000B" stroke-width="2" stroke-linecap="round"></path>
      <path d="M24 32C24 32 26 36 30 36C34 36 36 32 36 32" stroke="#50000B" stroke-width="2" stroke-linecap="round"></path>
      <path d="M18 12V36" stroke="#50000B" stroke-width="1.5" stroke-linecap="round"></path>
      <path d="M24 12V36" stroke="#50000B" stroke-width="1.5" stroke-linecap="round"></path>
      <path d="M30 12V36" stroke="#50000B" stroke-width="1.5" stroke-linecap="round"></path>
    </svg>