<svg viewBox="0 0 48 48" fill="none" xmlns="http://www.w3.org/2000/svg" aria-hidden="true">
      <path d="M14 12C10 12 8 16 8 22C8 28 10 32 14 32C16 32 18 30 18 26C18 22 16 20 16 18C16 16 18 14 18 14C18 14 16 12 14 12Z" stroke="#50000B" stroke-width="2" stroke-linecap="round" stroke-linejoin="round"></path>
      <path d="M34 12C38 12 40 16 40 22C40 28 38 32 34 32C32 32 30 30 30 26C30 22 32 20 32 18C32 16 30 14 30 14C30 14 32 12 34 12Z" stroke="#50000B" stroke-width="2" stroke-linecap="round" stroke-linejoin="round"></path>
      <path d="M18 26V34C18 36 20 38 24 38C28 38 30 36 30 34V26" stroke="#50000B" stroke-width="2" stroke-linecap="round"></path>
      <path d="M24 38V42" stroke="#50000B" stroke-width="2" stroke-linecap="round"></path>
    </svg>