<svg viewBox="0 0 48 48" fill="none" xmlns="http://www.w3.org/2000/svg" aria-hidden="true">
      <circle cx="24" cy="20" r="8" stroke="#50000B" stroke-width="2"></circle>
      <circle cx="24" cy="20" r="3" fill="#50000B"></circle>
      <path d="M16 20L8 16" stroke="#50000B" stroke-width="1.5" stroke-linecap="round"></path>
      <path d="M16 20L8 24" stroke="#50000B" stroke-width="1.5" stroke-linecap="round"></path>
      <path d="M16 20L8 28" stroke="#50000B" stroke-width="1.5" stroke-linecap="round"></path>
      <path d="M32 20L40 16" stroke="#50000B" stroke-width="1.5" stroke-linecap="round"></path>
      <path d="M32 20L40 24" stroke="#50000B" stroke-width="1.5" stroke-linecap="round"></path>
      <path d="M32 20L40 28" stroke="#50000B" stroke-width="1.5" stroke-linecap="round"></path>
      <path d="M20 12L24 8" stroke="#50000B" stroke-width="1.5" stroke-linecap="round"></path>
      <path d="M24 12L28 8" stroke="#50000B" stroke-width="1.5" stroke-linecap="round"></path>
      <path d="M24 28L20 36" stroke="#50000B" stroke-width="1.5" stroke-linecap="round"></path>
      <path d="M24 28L28 36" stroke="#50000B" stroke-width="1.5" stroke-linecap="round"></path>
      <circle cx="8" cy="16" r="1.5" fill="#50000B"></circle>
      <circle cx="8" cy="24" r="1.5" fill="#50000B"></circle>
      <circle cx="8" cy="28" r="1.5" fill="#50000B"></circle>
      <circle cx="40" cy="16" r="1.5" fill="#50000B"></circle>
      <circle cx="40" cy="24" r="1.5" fill="#50000B"></circle>
      <circle cx="40" cy="28" r="1.5" fill="#50000B"></circle>
      <circle cx="24" cy="8" r="1.5" fill="#50000B"></circle>
      <circle cx="20" cy="36" r="1.5" fill="#50000B"></circle>
      <circle cx="28" cy="36" r="1.5" fill="#50000B"></circle>
    </svg>