<svg xmlns="http://www.w3.org/2000/svg" width="31" height="8" viewBox="0 0 31 8" fill="none"><g clip-path="url(#clip0_2633_38385)"><path d="M26.7773 7.98239C26.2203 7.98239 25.7312 7.89122 25.301 7.71181C24.8796 7.52357 24.5525 7.25887 24.3197 6.92063C24.0869 6.58239 23.972 6.18828 23.972 5.74416C23.972 5.30004 24.1252 4.87945 24.4346 4.53534C24.7499 4.18828 25.189 3.9471 25.7518 3.81181V3.76769C25.2774 3.62357 24.912 3.40298 24.6468 3.10004C24.3904 2.7971 24.2637 2.43534 24.2637 2.01475C24.2637 1.59416 24.3639 1.33239 24.5672 1.02945C24.7705 0.72063 25.0623 0.476512 25.4453 0.294159C25.8284 0.111806 26.2704 0.0235711 26.7743 0.0235711C27.2782 0.0235711 27.7173 0.114748 28.0915 0.294159C28.4746 0.476512 28.7663 0.72063 28.9697 1.02945C29.173 1.33239 29.2732 1.65887 29.2732 2.01475C29.2732 2.37063 29.1406 2.80887 28.8783 3.11181C28.622 3.41475 28.2595 3.63239 27.7851 3.76769V3.81181C28.3568 3.9471 28.7958 4.18828 29.1023 4.53534C29.4176 4.88239 29.5767 5.28534 29.5767 5.74416C29.5767 6.20298 29.4618 6.58239 29.229 6.92063C28.9962 7.25887 28.6662 7.52357 28.2389 7.71181C27.8175 7.89416 27.3313 7.98239 26.7743 7.98239H26.7773ZM26.7773 7.21181C27.1073 7.21181 27.3961 7.1471 27.6436 7.02063C27.9 6.89122 28.0945 6.71475 28.23 6.48828C28.3715 6.26181 28.4452 6.00592 28.4452 5.72063C28.4452 5.26769 28.2919 4.90298 27.9825 4.62357C27.676 4.33828 27.2723 4.19416 26.7773 4.19416C26.2822 4.19416 26.1555 4.25887 25.8991 4.38534C25.6516 4.51475 25.4571 4.69416 25.3127 4.92945C25.1772 5.15592 25.1094 5.42063 25.1094 5.72063C25.1094 6.15887 25.2626 6.51475 25.5721 6.79416C25.8785 7.07357 26.2822 7.21181 26.7773 7.21181ZM26.7773 3.43534C27.0543 3.43534 27.2959 3.37945 27.4992 3.26475C27.7085 3.15298 27.8705 2.99416 27.9825 2.79122C28.0945 2.58828 28.1505 2.35298 28.1505 2.09122C28.1505 1.69122 28.0267 1.37357 27.7792 1.14122C27.5317 0.908865 27.1987 0.791218 26.7773 0.791218C26.3559 0.791218 26.2557 0.844159 26.0465 0.950042C25.8432 1.05592 25.687 1.20592 25.5721 1.40298C25.4601 1.60004 25.4041 1.82945 25.4041 2.09416C25.4041 2.49416 25.5279 2.81769 25.7754 3.06769C26.0229 3.31769 26.3559 3.44122 26.7773 3.44122V3.43534ZM0 7.89416C0.135551 7.6971 0.229848 7.47651 0.28289 7.22651C0.335932 6.97063 0.362452 6.62651 0.362452 6.1971V1.82357C0.362452 1.39416 0.335932 1.05004 0.28289 0.794159C0.229848 0.535336 0.135551 0.314748 0 0.126512V0.0823946H1.82405V0.126512C1.6885 0.314748 1.5942 0.538277 1.54116 0.794159C1.48812 1.05004 1.4616 1.39416 1.4616 1.82357V6.20004C1.4616 6.62945 1.48812 6.97357 1.54116 7.22945C1.5942 7.47945 1.6885 7.70004 1.82405 7.8971V7.94122H0V7.8971V7.89416ZM9.64772 1.30298V6.18828C9.64772 6.61769 9.67424 6.96475 9.72728 7.22945C9.78032 7.48534 9.87462 7.70886 10.0102 7.8971V7.94122H8.43365V7.8971C8.5751 7.70886 8.66939 7.48534 8.71654 7.22945C8.76958 6.97357 8.7961 6.62651 8.7961 6.18828V1.81181C8.7961 1.38239 8.76958 1.03828 8.71654 0.782395C8.67234 0.526512 8.57804 0.308865 8.43365 0.126512V0.0823946H10.3491L12.9628 6.57357H13.007L15.5737 0.0794534H17.4213V0.123571C17.2857 0.305924 17.1914 0.526512 17.1384 0.791218C17.0942 1.0471 17.0706 1.38828 17.0706 1.80887V6.18534C17.0706 6.62357 17.0942 6.97063 17.1384 7.22651C17.1914 7.48239 17.2857 7.70592 17.4213 7.89416V7.93828H15.609V7.89416C15.7505 7.70592 15.8448 7.48239 15.8919 7.22651C15.945 6.97063 15.9715 6.62357 15.9715 6.18534V1.31181H15.9155L13.3135 7.93828H12.3794L9.7096 1.30004H9.65361L9.64772 1.30298ZM5.57823 3.53828L5.11559 3.3471L4.65295 3.53828L4.46141 4.00004L4.65295 4.46181L5.11559 4.65298L5.57823 4.46181L5.76977 4.00004L5.57823 3.53828ZM21.2138 3.53828L20.7511 3.3471L20.2885 3.53828L20.097 4.00004L20.2885 4.46181L20.7511 4.65298L21.2138 4.46181L21.4053 4.00004L21.2138 3.53828ZM29.9952 0.105924C29.892 0.161806 29.8125 0.244159 29.7565 0.344159C29.7005 0.4471 29.671 0.558865 29.671 0.679453C29.671 0.800042 29.7005 0.911806 29.7565 1.01181C29.8154 1.11181 29.895 1.18828 29.9952 1.24416C30.0983 1.30004 30.2103 1.32945 30.334 1.32945C30.4578 1.32945 30.5698 1.30004 30.6729 1.24416C30.776 1.18828 30.8556 1.11181 30.9116 1.01181C30.9676 0.911806 31 0.802983 31 0.676512C31 0.550042 30.9676 0.444159 30.9116 0.341218C30.8527 0.241218 30.7731 0.161806 30.6729 0.105924C30.5698 0.0500416 30.4578 0.0206299 30.334 0.0206299C30.2103 0.0206299 30.0983 0.0500416 29.9952 0.105924ZM30.6022 0.217689C30.6817 0.261806 30.7466 0.326512 30.7908 0.405924C30.835 0.488277 30.8586 0.576512 30.8586 0.676512C30.8586 0.776512 30.835 0.867689 30.7908 0.9471C30.7466 1.02651 30.6817 1.09122 30.6022 1.13534C30.5226 1.17945 30.4342 1.20298 30.334 1.20298C30.2338 1.20298 30.1454 1.17945 30.0659 1.13534C29.9863 1.09122 29.9244 1.02945 29.8802 0.950042C29.836 0.87063 29.8125 0.782395 29.8125 0.679453C29.8125 0.576512 29.836 0.488277 29.8802 0.405924C29.9244 0.326512 29.9863 0.261806 30.0659 0.217689C30.1454 0.173571 30.2338 0.1471 30.334 0.1471C30.4342 0.1471 30.5226 0.173571 30.6022 0.217689ZM30.5668 0.376512C30.5167 0.335336 30.446 0.311806 30.3635 0.311806H30.0865V1.03828H30.2279V0.779453H30.3399L30.4932 1.03828H30.6493L30.4755 0.752983C30.5256 0.741218 30.5668 0.714747 30.5992 0.676512C30.6287 0.641218 30.6434 0.5971 30.6434 0.544159C30.6434 0.491218 30.6169 0.423571 30.5668 0.379453V0.376512ZM30.3547 0.661806H30.225V0.429453H30.3547C30.3959 0.429453 30.4313 0.438277 30.4578 0.458865C30.4843 0.476512 30.4961 0.505924 30.4961 0.541218C30.4961 0.576512 30.4814 0.611806 30.4548 0.629453C30.4283 0.652983 30.393 0.661806 30.3547 0.661806Z" fill="#A40011"></path></g><defs><clipPath id="clip0_2633_38385"><rect width="31" height="8" fill="white"></rect></clipPath></defs></svg>