<svg width="92" height="16" viewBox="0 0 92 16" fill="none" xmlns="http://www.w3.org/2000/svg">
                            <g clip-path="url(#clip0_118_4001)"><path d="M8.49426 12.32C8.60019 12.256 8.73282 12.256 8.83875 12.32L12.9342 14.7918C13.1866 14.9442 13.498 14.7178 13.431 14.4307L12.3442 9.77193C12.3161 9.65143 12.357 9.52528 12.4506 9.44426L16.0694 6.30929C16.2922 6.11623 16.1731 5.75014 15.8793 5.72521L11.1148 5.32099C10.9916 5.31054 10.8843 5.23276 10.8361 5.11893L8.97341 0.724122C8.85855 0.453113 8.47446 0.453114 8.3596 0.724123L6.49694 5.11893C6.4487 5.23276 6.34141 5.31054 6.21821 5.32099L1.45371 5.72521C1.15991 5.75014 1.04077 6.11622 1.26364 6.30929L4.88244 9.44426C4.97596 9.52528 5.01691 9.65143 4.98879 9.77193L3.90197 14.4307C3.83499 14.7178 4.1464 14.9442 4.39884 14.7918L8.49426 12.32Z" fill="#A40011"></path></g><g clip-path="url(#clip1_118_4001)"><path d="M27.1608 12.32C27.2667 12.256 27.3993 12.256 27.5053 12.32L31.6007 14.7918C31.8531 14.9442 32.1645 14.7178 32.0975 14.4307L31.0107 9.77193C30.9826 9.65143 31.0236 9.52528 31.1171 9.44426L34.7359 6.30929C34.9587 6.11623 34.8396 5.75014 34.5458 5.72521L29.7813 5.32099C29.6581 5.31054 29.5508 5.23276 29.5026 5.11893L27.6399 0.724122C27.5251 0.453113 27.141 0.453114 27.0261 0.724123L25.1634 5.11893C25.1152 5.23276 25.0079 5.31054 24.8847 5.32099L20.1202 5.72521C19.8264 5.75014 19.7073 6.11622 19.9301 6.30929L23.5489 9.44426C23.6425 9.52528 23.6834 9.65143 23.6553 9.77193L22.5685 14.4307C22.5015 14.7178 22.8129 14.9442 23.0653 14.7918L27.1608 12.32Z" fill="#A40011"></path></g><g clip-path="url(#clip2_118_4001)"><path d="M45.8278 12.32C45.9337 12.256 46.0663 12.256 46.1722 12.32L50.2677 14.7918C50.5201 14.9442 50.8315 14.7178 50.7645 14.4307L49.6777 9.77193C49.6496 9.65143 49.6905 9.52528 49.7841 9.44426L53.4029 6.30929C53.6257 6.11623 53.5066 5.75014 53.2128 5.72521L48.4483 5.32099C48.3251 5.31054 48.2178 5.23276 48.1696 5.11893L46.3069 0.724122C46.192 0.453113 45.808 0.453114 45.6931 0.724123L43.8304 5.11893C43.7822 5.23276 43.6749 5.31054 43.5517 5.32099L38.7872 5.72521C38.4934 5.75014 38.3743 6.11622 38.5971 6.30929L42.2159 9.44426C42.3095 9.52528 42.3504 9.65143 42.3223 9.77193L41.2355 14.4307C41.1685 14.7178 41.4799 14.9442 41.7323 14.7918L45.8278 12.32Z" fill="#A40011"></path></g><g clip-path="url(#clip3_118_4001)"><path d="M64.4943 12.32C64.6002 12.256 64.7328 12.256 64.8387 12.32L68.9342 14.7918C69.1866 14.9442 69.498 14.7178 69.431 14.4307L68.3442 9.77193C68.3161 9.65143 68.357 9.52528 68.4506 9.44426L72.0694 6.30929C72.2922 6.11623 72.1731 5.75014 71.8793 5.72521L67.1148 5.32099C66.9916 5.31054 66.8843 5.23276 66.8361 5.11893L64.9734 0.724122C64.8585 0.453113 64.4745 0.453114 64.3596 0.724123L62.4969 5.11893C62.4487 5.23276 62.3414 5.31054 62.2182 5.32099L57.4537 5.72521C57.1599 5.75014 57.0408 6.11622 57.2636 6.30929L60.8824 9.44426C60.976 9.52528 61.0169 9.65143 60.9888 9.77193L59.902 14.4307C59.835 14.7178 60.1464 14.9442 60.3988 14.7918L64.4943 12.32Z" fill="#A40011"></path></g><g clip-path="url(#clip4_118_4001)"><path d="M83.1608 12.32C83.2667 12.256 83.3993 12.256 83.5053 12.32L87.6007 14.7918C87.8531 14.9442 88.1645 14.7178 88.0975 14.4307L87.0107 9.77193C86.9826 9.65143 87.0236 9.52528 87.1171 9.44426L90.7359 6.30929C90.9587 6.11623 90.8396 5.75014 90.5458 5.72521L85.7813 5.32099C85.6581 5.31054 85.5508 5.23276 85.5026 5.11893L83.6399 0.724122C83.5251 0.453113 83.141 0.453114 83.0261 0.724123L81.1634 5.11893C81.1152 5.23276 81.0079 5.31054 80.8847 5.32099L76.1202 5.72521C75.8264 5.75014 75.7073 6.11622 75.9301 6.30929L79.5489 9.44426C79.6425 9.52528 79.6834 9.65143 79.6553 9.77193L78.5685 14.4307C78.5015 14.7178 78.8129 14.9442 79.0653 14.7918L83.1608 12.32Z" fill="#A40011"></path></g><defs><clipPath id="clip0_118_4001"><rect width="16" height="16" fill="white" transform="translate(0.666504)"></rect></clipPath><clipPath id="clip1_118_4001"><rect width="16" height="16" fill="white" transform="translate(19.333)"></rect></clipPath><clipPath id="clip2_118_4001"><rect width="16" height="16" fill="white" transform="translate(38)"></rect></clipPath><clipPath id="clip3_118_4001"><rect width="16" height="16" fill="white" transform="translate(56.6665)"></rect></clipPath><clipPath id="clip4_118_4001"><rect width="16" height="16" fill="white" transform="translate(75.333)"></rect></clipPath></defs>
                          </svg>