<svg xmlns="http://www.w3.org/2000/svg" width="19" height="19" viewBox="0 0 19 19" fill="none">
    <g clip-path="url(#clip0_4962_240)">
      <mask id="mask0_4962_240" style="mask-type:luminance" maskUnits="userSpaceOnUse" x="0" y="0" width="19" height="19">
        <path d="M0.453613 0.639894H18.5366V18.7229H0.453613V0.639894Z" fill="white"></path>
      </mask>
      <g mask="url(#mask0_4962_240)">
        <path d="M9.42359 3.96507C8.52032 3.96507 7.78809 4.69731 7.78809 5.60058C7.78809 6.50385 8.52032 7.23608 9.42359 7.23608C10.3269 7.23608 11.0591 6.50385 11.0591 5.60058C11.0582 4.69762 10.3265 3.96595 9.42359 3.96507Z" fill="#50000B"></path>
        <path d="M8.97401 10.1572L4.25241 15.0868C3.12222 13.9971 2.36465 12.5785 2.08768 11.0331C2.03484 10.7432 1.99865 10.4505 1.97928 10.1564L8.97401 10.1572ZM2.03348 8.64283C2.48571 5.42538 4.94758 2.85911 8.14351 2.27377C8.59471 2.19119 9.05252 2.14959 9.51121 2.14943C13.2631 2.15708 16.4367 4.92644 16.9523 8.64283H2.03348ZM13.5322 16.044C11.0621 17.6042 7.91341 17.5985 5.44875 16.0297L9.48332 11.8174L13.5322 16.044ZM17.0113 10.1572C16.9261 11.5224 16.4701 12.8386 15.6923 13.9638C15.4084 14.3737 15.0851 14.755 14.727 15.102L9.99102 10.1604L17.0113 10.1572ZM14.6409 2.24189C10.5327 -0.597452 4.90056 0.431274 2.0613 4.53948C-0.778042 8.64777 0.250684 14.2799 4.35889 17.1192C8.46503 19.957 14.0939 18.931 16.9347 14.827C19.7715 10.7172 18.7453 5.08648 14.6409 2.24189Z" fill="#50000B"></path>
      </g>
    </g>
    <defs>
      <clipPath id="clip0_4962_240">
        <rect width="18.083" height="18.083" fill="white" transform="translate(0.453613 0.639893)"></rect>
      </clipPath>
    </defs>
  </svg>